<svg width="1750" height="900" xmlns="http://www.w3.org/2000/svg">
 <metadata id="metadata8">image/svg+xml</metadata>

 <g>
  <title>background</title>
  <rect fill="none" id="canvas_background" height="902" width="1752" y="-1" x="-1"/>
 </g>
 <g>
  <title>Layer 1</title>
  <g id="g10" transform="matrix(1.3333333,0,0,-1.3333333,-96,2189.64) ">
   <g id="g12" transform="translate(22.5,75) scale(0.10000000149011612) ">
    <g id="g14" transform="translate(262.5,1342.5) scale(1.304479956626892) ">
     <path fill="#100f0d" fill-rule="evenodd" d="m8779.134847,10173.293595c1.5,-8.3 49.4,-25.7 71.6,-31.3c70.2,-17.7 124.2,-67 180.4,-116.7l13.1,18.8c-10.1,17.9 -19,31.9 -20.1,51.5c-73.7,55.2 -151.5,115.2 -229.3,113.5l-12.5,8.8c-15.1,-27.9 -13.4,-22.6 -3.2,-44.6" id="path16"/>
    </g>
    <g id="g18" transform="translate(262.5,1342.5) scale(1.3061000108718872) ">
     <path fill="#100f0d" fill-rule="evenodd" d="m8837.435417,10019.040443c-33,9.5 -72.2,6.1 -108,19.3c-11.8,-18.3 -16.2,-28.6 -20,-42c87.7,-51.5 240.1,-35.3 315.6,-136.5c10.6,7.6 15.7,11.3 28.2,27c-65.6,52.3 -137.1,109.2 -215.8,132.2" id="path20"/>
    </g>
    <g id="g22" transform="translate(262.5,1342.5) scale(1.3681600093841553) ">
     <path fill="#100f0d" fill-rule="evenodd" d="m9308.449105,7813.787102c73.5,236.56 5.8,603.25 -341.2,711.05c-161.4,50.2 -321,54.4 -473.1,63.2c-77.4,4.5 -143.6,33.3 -222.2,39.3c-81.7,6.2 -170.6,2.3 -253.3,7.6c-71.5,4.7 -136.4,33.8 -206,37c-59.9,2.8 -126.5,-17.4 -186.8,-12.1c-9.5,0.8 -41.9,29.3 -41.9,29.3c-22.9,-4.1 -11.3,-22.2 -38.9,-17.4c-32,8.2 -99.5,159.3 -129.5,197.5c-28.1,35.8 -61.5,50.4 -73.1,86.8c27.7,30.8 145,30.5 197.5,40.2c142.4,26.3 283.3,60.3 429.3,65.6c59.5,2.2 134.6,41.6 195.2,24.1c61.5,-17.8 105.6,-96.4 133.1,-128.6c117.9,-138.6 376.5,-347.4 515.7,-244.6c59.6,25.6 34.7,103.6 33.4,137.2c-5.1,130.8 -72.3,243.4 -168.5,358.5c-32.4,38.8 -130.8,95.4 -124.7,140.7c-199.6,64.9 -358.4,20.5 -539.5,-6.4c-81.9,-12.2 -168.4,1.5 -247.8,-23c-35.8,-11 -105.6,-32.2 -140.7,-35.4c-99.8,-9.2 -194.4,-21.7 -292.8,-36.1c-21.1,-9 -42.3,-18 -63.5,-27c-57.8,-6.8 -131.4,2 -185,-22.3c-82.8,59.4 -157.8,156.9 -261.2,200.4c-152.2,63.9 -291,174.2 -439,226.6c-182.8,64.8 -370.7,100.2 -546.8,123.5c-58.8,7.8 -110,27.2 -167.7,28.1c-43.8,0.6 -94.8,-17.9 -138.3,-19.3c-25.4,-0.8 -55.3,9 -79.1,1.7c-76.7,-23.4 -131.8,-57.8 -208.9,-94.7c-41.8,-20.1 -85.5,-13.8 -126.3,-27.7c-82.1,-27.7 -122.7,-84.6 -184.3,-174.3c9.4,-50.7 -8.8,-89.2 49.8,-132.9c-85.8,-83.1 -237.2,-328.2 -236.2,-414.6c-21.6,-7.7 -97.6,34.3 -127,35.3c-142.9,4.5 -331.8,-65.8 -204.7,-312.4l-32.8,23.6c-154.9,84.5 -309.9,169 -464.9,253.5c-158,92.7 -368,226.1 -544.5,318.2c-85.3,44.6 -172,107.7 -250.4,139.3c-67.23,44.1 -134.55,88.1 -201.87,132.2c-69.72,28.1 -134.26,90.4 -210.2,120.2c-202.25,79.2 -380.52,210.2 -562.88,253.7c-193.61,46.1 -424.95,1.3 -520.04,-259.3c-20.46,-56 -6.8,-144.4 7.89,-192.8c45.47,-149.4 300.99,-372.4 452.73,-436.8c68.7,-29.2 127.11,-72 190.47,-97.4c68.12,-38.7 136.17,-77.4 204.29,-116.1c131.64,-52.8 228.26,-151.6 356.39,-204.5l149.84,-104.7c55.62,-22.4 122.98,-66.2 178.48,-89l89.8,-62.9c49.9,-19.9 108.4,-55 160.5,-76.5l89.9,-62.78c50.8,-20.43 122.9,-65.63 174.4,-95.08l113.8,-79.56c133.7,-54.01 317.3,-187.19 426.5,-244.58c170.5,-89.62 316.4,-214.74 480.5,-282.28l113.8,-79.55c172.6,-69.72 280,-184.59 454.7,-255.35c59.2,-38.47 118.6,-76.95 177.9,-115.43c91,-36.17 159.5,-125.11 265.9,-168.06c210.2,-84.83 496.1,-292.11 558.5,-446.62c34.2,-84.74 22.8,-83.23 2.5,-148.32c-10.5,-34.09 -13.7,-39.56 -43.6,-49.73c-95.7,-110.3 -447.3,88.96 -586.4,139.28c-252.1,91.2 -1649.6,771.08 -1825.3,999.27c-34.2,44.44 -68.4,107.43 -85.7,158.02c-16.4,47.96 9.1,127.84 -6.1,182.62c-58.3,210.11 -315.6,231.62 -403.2,201.5c-300.99,-103.58 -637.06,-631.83 -680.63,-986.7c-20.61,-167.68 41.45,-396.18 279.94,-454.28c66.81,-16.27 127.18,15.03 189.19,28.28c14.8,-0.61 20.7,-9.75 28.2,-10.75c35.9,-3.96 183.7,119.19 226.2,145.07c83.9,51.13 342.9,140.51 432.8,134.44c319.7,-21.54 1647.6,-641.87 1991.3,-774.21c173.1,-66.65 244.5,-114.76 412.7,-111.78c156.2,2.76 342.7,68.28 396,254.73c40.2,140.29 68.1,243.78 -6.5,364.99c-35.3,57.51 -96.5,157.87 -140,207.87l-101.9,71.18c-66,72.95 -231.7,135.59 -312.9,215.74c-47.7,47.02 -141.4,68.7 -194.1,117.81c-71.1,66.22 -331.8,202.81 -442.7,246.97c-85.4,47.84 -171,95.69 -256.4,143.53l-113.8,79.54c-50,20.55 -112.9,66.2 -162.3,86.71l-101.9,71.18c-115.1,46.86 -223,112.59 -315,178.62c14.3,19.37 31.4,41.9 31.6,58.09c63.6,91.93 111.4,208.48 189,266.22c59.4,-41.85 233,-161.81 286.4,-164.47c105.2,-75.12 35.3,-68.44 61.7,-141.28c27.7,-76.24 110.6,-115.59 183.4,-145.96c-2.2,-7.49 122.2,-21.7 188.6,1.93c21.2,7.56 36.3,26.56 57.5,31.18c91.3,125.47 103.7,267.17 30.2,362.29c-76.6,99.31 -262.8,173.51 -347.5,87.11c-155.9,91.2 -263,127.2 -441.8,236c-57.6,35 -166.6,88 -211.2,143.5c-39.1,48.8 -48,86.6 -66.9,136.8c85.9,148.7 121.3,109.9 240,126.5l71.9,-50.2c5.4,-13.5 -11.1,-39 -11.4,-54.5c-1.1,-62 42,-224.4 146.3,-262.8c184.7,-68 328,87.6 481.3,216.5c31.3,26.3 124.7,93.3 126.8,143.2c21.5,97.4 -105.5,354 -178.8,446c-31.4,39.5 -93.1,112 -145.5,110.6c-50.4,8.3 -116,-46.5 -156.3,-95.9c-24.4,24.3 -29.8,55.9 -20.3,85.6c2.3,80 104.9,131.9 153.2,142.7c31.5,7 62.9,23.9 95.7,22.2c134.5,-6.9 300.7,-168.3 326.6,-272.8c17.5,-11.3 27.2,-15.5 40.1,-19.2c27.6,61.6 -154.1,313.8 -270.9,314.2l-18,12.6c50,42.2 151.9,39.4 211.4,21.7l47.9,-33.5c23.2,-7.6 55.1,-2.3 80.8,-11.9c165.5,-62.1 264,-280.2 299.7,-387.8c31.4,-94.1 -7.8,-199.6 46.3,-291c74.3,35.1 148.4,42.7 228.2,45.7c262,9.9 633.1,13.3 892.3,-267c52.6,-39.7 105.1,-79.4 157.6,-119.1c8.2,-3.5 39.3,-10.8 52.1,-27.5c81.1,-105.2 167.4,-288.9 90.2,-419.65c-86.2,63.95 -246.5,239.05 -349.9,226.65c-7.3,2.2 -14.8,4.4 -22.2,6.6l-25.1,-35.9c34.9,-19.7 58.2,-14.8 88.6,-26.3c89.1,-33.7 248.2,-166.46 293.1,-231.54c48.8,-70.82 43.2,-150.58 66,-224.5c-24.5,-39.33 -49.1,-78.67 -73.6,-118c-40.7,-7.22 -81.4,-14.44 -122.1,-21.65l-24,16.74c39.6,57.5 53.4,102.86 62.1,152.74c-25.2,11.35 -27.3,6.03 -48.4,7.15c-21.5,130.76 -255.7,390.66 -456,470.36c-94.2,37.4 -179.3,91.2 -273.2,119.5c-211.7,63.8 -406.5,72.5 -601.2,45.7c-59.3,-94.2 -63.1,-235 -68.1,-327c-14.4,-269.76 131.5,-594.58 503.6,-708.61c24.7,-11.35 49.5,-22.72 74.2,-34.07c59.1,-8.82 157.8,7.8 210.8,-4.64c14.6,-13.16 29.2,-26.33 43.8,-39.49c23.3,-4.91 59.3,16 87.4,10.25c112.4,-23 202.7,-106.24 263.6,-184.23c34.6,-44.39 71.8,-79.29 80.3,-127.49c21,-119.06 -71.7,-248.84 -177,-304.31c-64,-33.73 -120,-59.52 -189.8,-54.62c-223.1,15.63 -496.6,267.77 -460.2,464.31c-47.6,24.72 -101.5,104.01 -187.5,139.97c-183.7,76.84 -442.6,301.2 -623,399.86c-6.2,-4.6 -12.5,-9.19 -18.6,-13.79l3.6,-20.35c88.4,-56.66 248.9,-182.82 345.1,-223.42c75.6,-31.89 146.9,-112.3 213.8,-140.55c65.8,-27.74 138.4,-128.5 201.9,-132.19c25.6,-32.63 12.8,-129.94 36.7,-177.21c96.1,-190.04 394.5,-415.26 600.8,-339.67c85.7,31.36 238.8,108.48 281.2,249.3c16.7,55.22 -13.5,129.61 50.8,187.46c305.3,274.41 491.7,650.98 499.9,970.4c2.5,97.59 10.8,227.29 -49.9,311.29l8.3,12c328.9,-53.8 672,-91.9 1010.9,-225c81.2,-31.81 94.4,-103.4 120.5,-146.59c60.7,-100.24 89.8,-181.62 166.1,-285.49c19.8,-26.99 58.7,-96.76 97.1,-103.53c67,-45.27 104.9,-22.94 161.7,-23.82c34.7,46.44 87,93.17 104.6,149.78" id="path24"/>
    </g>
    <g id="g26" transform="translate(262.5,1342.5) scale(1.1356600522994995) ">
     <path fill="#ffffff" fill-rule="evenodd" d="m5382.639846,10318.199823c247.3,-123.4 471.9,-265.9 715.9,-398c123.7,-67 283.8,-150.3 262.2,-226.6c16.9,-7.5 15.2,-7.9 26.7,-7.9c12.3,6.4 8.7,7.5 7.9,26.7c24.4,84.5 -66,148.3 -163.8,211.2l10.1,14.4c35.1,-12.1 64.7,-4.6 97.4,-14.3c31.8,-9.5 60.2,-39.5 89.4,-41.1c227.8,-152.4 137.2,-191.9 135.9,-374.3c-75.2,-113.2 -203,-119.3 -300,-91.1c-57.4,16.7 -139.7,80.2 -148.7,125.5c-16.9,23.9 -10.9,30.1 -16,54c12.3,5.2 192.5,-54.4 213.7,-63.3c16.3,28.9 13.1,30.8 15.8,53.4c-60.7,20.9 -121.2,41.8 -181.8,62.6l-108.3,75.7c-67,27.9 -145.4,76.7 -207.8,102.3l-93.9,65.5c-169.4,70.5 -330.2,214.3 -499.4,284.6l-144.3,100.9c-155.4,62 -319.2,190.8 -482.8,262.2c-24.3,10.6 -62.1,24.8 -72.5,34.6c-47.4,29.5 -99.9,51.9 -147.3,81.4c-22.5,23.1 -65.6,41.9 -108.5,59.8c-65,27.1 -128.2,100.1 -203.5,131.5c-105.4,43.9 -208,147.3 -329.2,197.8c-196.3,81.9 -347,254.8 -534,319.5c-71.7,24.8 -143.2,92.6 -220.9,122.1c-209.6,79.9 -430.6,223.2 -613.3,160.1c-46.5,-16.1 -134.4,-61.8 -116.6,-197.8c-26.7,-121.6 343.1,-372.3 564.5,-491.2c123.6,-79.2 247.2,-158.5 370.9,-237.8c119.8,-82.9 193.6,-137 315.8,-188.5c72.2,-50.4 226.7,-136.9 298.8,-187.3c149,-62 450.5,-234.7 546.5,-324.7c85.7,-80.3 413.6,-160.3 410,-243.5c189.3,-46.2 380,-244.9 569.4,-322.8c86.6,-60.5 181.9,-98.4 268.5,-159c169.9,-67 364.3,-240.5 564.3,-329.9c96.5,-56.7 192.9,-113.4 289.4,-170.1c131.8,-51.4 280.7,-161 417.8,-216.8l137.1,-95.8c154.4,-61.4 418,-223 531.5,-346.4l150.7,-70.1c106.4,-112.4 149.5,-181.9 206.6,-273.48c49.5,-79.43 20.8,-170.13 36.4,-258.26c22.4,-125.43 -3.5,-41.48 -51.6,-182.44c-21.1,-35.36 -62,-83.73 -83.2,-119.09c-6.3,-16.2 -48.9,-46.46 -111.6,-71.46c-170.9,-68.1 -253.7,-110.89 -460.8,-9.28c-65.6,32.21 -155.3,44.78 -245,79.89c-146.9,57.53 -265.7,145.38 -418.9,199.74c-126.1,44.75 -1429.2,653.58 -1545.8,693.58c-105.1,36.1 -241.4,33.8 -344.5,44.7c-104.1,11.2 -275.3,-7.3 -372.2,-40.6c-67.9,-23.4 -148.4,-78.4 -219.2,-83.1l-10.1,-14.5l-14.5,10.1c192.4,278.1 346.8,494.7 378.2,756.3c5.2,42.7 27.7,83.7 22.3,124.1l10.1,14.4c29.6,-29.9 41.2,-67.5 61.3,-96.6c42.2,-60.6 111.5,-90 160.3,-155c12.3,-16.4 28.8,-55.7 44.8,-74.2c74.5,-86.6 201.7,-102.8 269.9,-167.2c92,-86.8 1428.5,-709.71 1537.2,-752.04c148.8,-57.93 295.6,-132.44 430.8,-182.92c69,-25.75 110.8,-51.71 176.7,-69.83c90.6,-24.88 270.8,-65.43 361.5,-17.75c92.5,60.66 98.7,54.4 114.5,134.46c61.6,314.48 -401,614.48 -784.7,776.78c-100.4,66.5 -200.7,133.1 -301,199.6c-242.9,100.6 -433,287 -682.7,391.2l-144.3,100.9c-157.9,65.2 -322.3,201.2 -465.5,271.6c-201.3,98.9 -404.8,266.9 -612.7,353c-108.7,45 -197.6,143.4 -291.6,182.3c-120.6,49.9 -225.5,147.5 -337.7,193.1c-109.4,44.5 -201,126.4 -301.7,167.8c-195.4,80.5 -380.6,267.6 -573.7,347.3c-57,36.3 -114.1,72.6 -171,108.8c-187.7,95.3 -354.5,215.5 -542.1,310.8c-96.4,39.7 -193.2,120.7 -237.2,172.9c-64.3,76.3 -178.7,214.2 -173.9,273.8c4.2,52.2 -16.6,135.1 4.2,190.4c104.6,278.1 392.3,325.7 668.2,208c45.9,-21.3 91.9,-42.7 137.8,-64.1c535.1,-218.2 1106.4,-613.3 1634.9,-902.2c78,-42.6 142.9,-91.9 195.9,-117.4c236.6,-113.7 492,-283.8 728,-401.6" id="path28"/>
    </g>
    <path fill="#ffffff" fill-rule="evenodd" d="m5864.5,12614.337622c-36.2,-76.3 -35,-47.8 -36.8,-116.7l-11.4,-16.4l-57.4,40.1c43.5,99.5 67.4,97.5 113.7,209.3c25.7,62.1 106.8,204.4 138.3,232.8c17.7,-15.2 22,-17.8 27,-31.1l16.4,-11.5c-74.6,-106.1 -153.5,-230 -189.8,-306.5" id="path30"/>
    <path fill="#ffffff" fill-rule="evenodd" d="m6052,12812.737622c26.7,25.8 39.4,65.4 65.4,76.2c43.6,-1.8 269.1,-149.5 345.1,-204.6c-59.3,-86.1 -217.8,-347.7 -220.9,-414.9c-17.2,-22.7 -27.8,-32.8 -42.6,-43.5c-46.5,34.2 -132.1,110.6 -177.8,112.1c-49.7,31.9 -170.9,98.5 -168.9,142.5c5.7,43 155.6,289.5 199.7,332.2" id="path32"/>
    <path fill="#ffffff" fill-rule="evenodd" d="m6509.2,12663.937622c21.4,-13.7 31.1,-20.2 46.7,-20.4c17.1,-15.9 17.7,-18.1 27.1,-31.2c-76.2,-107.4 -172.1,-238.2 -203.8,-309c-40.6,-90.6 -47.4,-44 -50.7,-119.1c-8.4,-6.2 -16.9,-12.5 -25.4,-18.8l-49.2,34.4c111.6,178.2 170.9,319.4 255.3,464.1" id="path34"/>
    <path fill="#ffffff" fill-rule="evenodd" d="m5713.3,12549.237622c-64.9,42.9 -164,110 -232.8,138.2c-135.6,55.7 -314.9,163.3 -409.8,205.1c-76.5,53.4 -198.9,122.7 -275.4,176.2c-119,48.2 -260,148 -365.5,198.5c-60.4,28.9 -194.3,110.7 -233.6,142.9c-201.7,165.4 -448.5,267.3 -623.1,382.7c-214.2,141.6 -460.4,260.7 -601.4,408.1c-142.1,148.5 -36.1,286.9 29,309.1c183.2,62.7 394.4,-74.2 603.4,-149.2c71.2,-37.6 139.7,-79.3 211,-117c408.5,-218.4 425.2,-299.3 662.6,-396c143.2,-58.3 229.9,-158.9 349.2,-207.4c79,-32.1 208.3,-131.5 249.1,-149.7c58.7,-26.3 276.3,-177.5 327.1,-204.2c176.6,-92.9 374.7,-202 556.4,-303.5c-105.5,-174.3 -140.7,-259.5 -246.2,-433.8" id="path36"/>
    <g id="g38" transform="translate(262.5,1342.5) scale(1.023669958114624) ">
     <path fill="#ffffff" fill-rule="evenodd" d="m6646.155762,12336.694302c19.7,-7.2 64.5,-28.9 86.9,-29.3c50.5,-35.7 108.7,-68.7 152.5,-107.4c32.5,-28.6 62.1,-53 98.9,-93.1c37,-40.2 69.4,-100 69.4,-100c-25.2,25 -85.4,90.5 -177,131.9c-38.5,15.6 -75.8,30.4 -112.7,44.4c-60.3,22.7 -119.4,43.1 -181,60l-2.1,11.2c20.1,30.9 43.8,66.3 65.1,82.3" id="path40"/>
    </g>
    <g id="g42" transform="translate(262.5,1342.5) scale(1.1880899667739868) ">
     <path fill="#ffffff" fill-rule="evenodd" d="m8042.631812,8753.384352c-47.7,-24.2 -82.9,-57.9 -132.3,-71.9c-285.2,-80.3 -754.8,-54.1 -1004.2,311.7c-93.3,136.8 -140.8,316.6 -132,472.2c5.5,98.4 60.7,202 55.5,300c46.9,44.4 106.3,10.8 161.4,10.5c34.7,-0.2 76.3,15.8 112.4,13.8c129.6,-7 270.5,-50.3 402,-85.9c98.4,-26.6 193.4,-92.4 289.1,-130.1c26.9,-10.6 45.6,-34.7 66.9,-36.5c223.6,-157.8 378.8,-305.9 425.8,-492.7c1.3,-12.1 16.8,-13 32.4,-12.4l13.8,-9.6c-63.8,-144.3 -192.5,-219.4 -290.8,-269.1" id="path44"/>
    </g>
    <g id="g46" transform="translate(262.5,1342.5) scale(1.1993299722671509) ">
     <path fill="#100f0d" fill-rule="evenodd" d="m8091.293504,11046.549095c44.9,10.1 99.8,25.8 142,43.1c37.9,-15.6 92.8,-46.7 104.7,-83.2c9.6,-22.6 -20,-65.7 -32.1,-89.6l27.3,-19.1c20.4,18.4 61.9,58.2 62.1,88.9c12.8,52.4 -56.1,114.2 -116.9,152.9c-26.1,1.4 -52.3,2.7 -78.6,4c-36,-11 -64.1,-34.5 -100.3,-41.7c-11.4,-17.8 -16.9,-25.9 -17.1,-38.9c3.2,-10.5 -0.1,-3.7 8.9,-16.4" id="path48"/>
    </g>
    <g id="g50" transform="translate(262.5,1342.5) scale(1.101199984550476) ">
     <path fill="#100f0d" fill-rule="evenodd" d="m7527.631559,12729.205944c30.4,-3.8 81.2,-63.2 113.9,-90.7c-12.1,-24.5 -13.8,-27.8 -11.1,-47.6l-10.4,-14.9l29.8,-20.8c18.2,17.4 29.9,20.7 31.2,44.6c14,20.4 23.5,34.3 23.8,49.9c-16.3,45.8 -92.5,77 -113.2,123.4c-101.7,68.2 -254,27.4 -333.2,-33l-7.6,5.2c-6.4,-21.1 -3.8,-22 -5.9,-40.2c81.6,-42.7 178.5,55.2 282.7,24.1" id="path52"/>
    </g>
    <g id="g54" transform="translate(262.5,1342.5) scale(1.3766100406646729) ">
     <path fill="#100f0d" fill-rule="evenodd" d="m9421.014291,7691.558245l-17.8,12.49c-24.2,-24.96 -14.1,-48.79 -44,-75.61c-37.2,-33.35 -81.4,-42.6 -119,-94.12c13.9,-6.18 12.5,-6.54 22.1,-6.53c43.3,1.75 162.1,78.94 156.4,147.7c0.8,5.36 1.6,10.72 2.3,16.07" id="path56"/>
    </g>
    <g id="g58" transform="translate(262.5,1342.5) scale(1.3843599557876587) ">
     <path fill="#100f0d" fill-rule="evenodd" d="m9462.50529,7556.272727c-0.2,17.51 0.9,17.93 -11.3,34.31c-31.1,-24.28 -16.1,-53.6 -47.9,-81.11c-32.7,-28.34 -83.6,-36.18 -123.6,-63.4c0.6,-3.37 1.2,-6.72 1.7,-10.07c52.8,-25.11 188.7,31.79 181.1,120.27" id="path60"/>
    </g>
    <g id="g62" transform="translate(262.5,1342.5) scale(1.1715500354766846) ">
     <path fill="#100f0d" fill-rule="evenodd" d="m7703.259797,9599.662995c-51.5,2.1 -199.9,117.4 -264.4,143.1c-46.1,18.4 -100.1,32 -143.4,48.2c-43,23 -85.8,46.1 -128.7,69.1c-57.6,2.1 -115.2,4.1 -172.8,6.2c-15.2,-24.9 -21.6,-38.1 -20.2,-58.8l-9.8,-14c47.5,-31.4 94.3,-45.3 140.6,-67c59.7,-48.7 119.4,-97.4 179.2,-146c119.7,-84 263.3,-152.3 358.8,-261.3c99,-112.7 181.7,-259.2 273.8,-368.3c9.5,3.7 19.1,7.5 28.6,11.2c12.2,1.3 13.2,17.1 12.6,32.9c-4.3,65.4 -75.6,109.4 -121.8,168.4c-40.6,56.2 -81.2,112.3 -121.8,168.5c-69.8,59.1 -139.5,118.3 -209.2,177.4c-62.3,62.6 -204.8,84 -244.9,171.2l-167.9,117.3l4.9,7c257.1,-42.3 897.7,-392.7 1006.1,-661.5c0.6,-3.9 1.3,-7.9 2,-11.9l4.9,7c8.7,-2.5 17.3,-5.1 25.9,-7.6c85.2,137.1 -325,367.2 -432.5,468.9" id="path64"/>
    </g>
    <g id="g66" transform="translate(262.5,1342.5) scale(1.0520100593566895) ">
     <path fill="#100f0d" fill-rule="evenodd" d="m7024.837532,11022.63108c-22.1,6.9 -23,4.1 -42,6.2c-16.9,-35.5 -15.4,-45.9 6.2,-73.9c38.4,-93.7 166.9,-106.8 236.9,-142.4l16.4,23.4c60.6,32.9 -119.5,193.3 -217.5,186.7" id="path68"/>
    </g>
    <g id="g70" transform="translate(262.5,1342.5) scale(1.0386600494384766) ">
     <path fill="#ffffff" fill-rule="evenodd" d="m7153.197663,11738.383207l-7.9,5.5c42,153.5 -184.5,512.3 -362.5,641c-75.2,-30 -126.8,-46.9 -195.4,-145.3c249.1,-166 472,-325.9 505.6,-545.1c0,-0.2 -0.1,-0.2 -0.1,-0.3c-1.9,-7.8 -2.8,-8.5 -6.4,-14.2c-3.4,-5.4 -6.8,-6.9 -12.2,-6.1c-29.2,21.6 -145.2,124.2 -203.5,166.1c-37.3,2.9 -73.2,41.7 -113.6,56c-80.6,28.3 -246.1,99.6 -321.1,95.2c-15.4,-5.9 -25.8,-20.5 -41,-41.9c-3.4,-47.8 -54.1,-84.2 -72.4,-137.3c-62.8,-182 -101,-372.3 90.2,-509.4c47,3 95,-18.8 141.3,-16.5c142.9,7.3 416.7,220.6 534.4,378.2l-0.3,0.3c2.5,2.9 5.3,6.3 7.3,9.3c0,-0.3 0,-0.7 0.1,-1l5.5,7.9c18.3,7 35.5,32.8 52,57.6" id="path72"/>
    </g>
    <path fill="#100f0d" fill-rule="nonzero" d="m-3818.36,9268.037622c-7.42,-13.3 -23.83,-6.6 -36.72,-15.6c-4.3,-3.1 -1.95,-18.4 -5.47,-21.1c17.97,-12.5 44.14,-25.8 52.34,-46.5c27.34,-68.7 -28.51,-127.3 -78.12,-135.9c-114.43,-19.9 -203.87,78.5 -73.42,119.9c-19.14,14.9 -48.82,33.6 -57.42,57.4c-23.82,65.6 32.03,122.3 83.59,130.9c60.93,9.7 149.2,-25.8 115.22,-89.1zm-379.64,89.5c46.49,6.2 94.53,-9.4 112.88,-32.9c30.08,-36.7 47.65,-262.4 -10.15,-275.7c-102.34,-23.4 -51.17,123 -70.7,189.1c-10.15,35.5 -61.71,30 -70.3,-5.2c-15.23,-64.8 30.07,-208.9 -70.3,-183.9c-10.55,2.7 -30.08,28.1 -32.03,37.9c-6.64,27.3 -6.64,194.9 -0.39,221.8c1.56,6.7 21.48,35.2 27.34,37.9c27.73,12.9 54.29,-7.4 91.79,0c3.9,0.8 15.23,9.8 21.48,10.6l0.38,0.4zm-321.43,-115.3c-46.87,-9.7 -42.18,-124.6 25.78,-109.7c45.7,10.1 43.74,123.8 -25.78,109.3l0,0.4zm-31.25,114.1c208.96,33.6 223.41,-278.5 57.03,-307.4c-202.71,-35.2 -230.44,279.3 -57.42,307l0.39,0.4zm-205.05,1.9c18.35,2.8 22.65,-5 31.24,-12.1c46.87,-36.7 -12.89,-52.3 -7.8,-82.4c0.77,-4.3 17.96,-16.8 19.52,-23.4c7.43,-28.5 8.6,-141.4 -0.38,-169.5c-1.57,-5.9 -17.58,-22.3 -23.44,-23.8c-22.27,-5.1 -42.96,10.5 -47.26,24.2c-3.13,10.5 1.17,24.2 0.39,34.7c-3.12,36.4 -9.76,96.9 0,134c1.95,7 19.14,19.5 19.92,23.4c3.12,20.3 -9.38,18.4 -16.01,27.8c-3.13,4.6 -1.57,5.4 -3.52,11.7c-1.56,4.7 -6.64,17.5 -4.29,27.7c1.95,8.6 21.48,26.2 31.63,27.3l0,0.4zm-108.18,-59.7c11.33,-22.3 53.51,-18 46.87,-59.4c-3.91,-24.2 -40.23,-23.4 -46.48,-42.6c-12.1,-35.9 3.12,-89.4 -8.59,-123c-2.73,-8.2 -2.34,-12.1 -8.2,-16.8c0,0 -1.17,-0.8 -13.28,-8.6c-79.68,-17.9 -40.62,96.5 -55.07,148.4c-6.25,22.7 -46.87,25 -33.99,67.6c2.74,9 25,17.2 30.08,25.8c14.05,24.6 5.08,62.9 37.89,67.9c49.6,7.5 37.1,-32.4 50.77,-59.3zm-172.63,47.6c5.08,-2.3 11.33,-11.7 15.62,-15.6c26.56,-24.6 16.02,-73 -21.09,-78.9c-20.3,-3.1 -51.55,13.7 -78.5,5.5c-23.83,-7.4 -35.94,-59.4 -21.49,-89.5c19.15,-38.2 89.84,-5.4 121.08,-26.1c44.92,-29.7 -9.37,-80.5 -36.71,-89.1c-33.59,-10.9 -81.63,-5.8 -110.14,4.7c-1.95,0.8 -4.3,10.2 -5.08,10.9c-121.47,63.7 -94.91,269.9 41.8,288.7c33.19,4.7 73.03,0 94.51,-10.6zm-418.68,-158.9c1.56,-7.8 12.89,-24.6 16.01,-32.8c12.11,-0.4 33.59,0.4 44.13,0c3.91,8.6 14.46,17.9 16.41,26.9c11.33,53.1 -12.5,120.7 10.94,158.6c3.51,5.8 17.96,6.2 21.87,10.9c-18.75,0.8 41.01,16.8 60.14,-10.5c23.44,-34 13.67,-148.4 5.48,-191.4c-8.6,-44.5 -30.08,-78.1 -65.23,-93c-29.69,-12.5 -72.26,-11.3 -104.29,-5.4c-35.93,6.2 -64.04,15.2 -82.02,38.2c-29.68,37.1 -52.73,254.7 10.94,267.6c96.48,19.9 52.72,-102 65.62,-169.1zm-285.51,7.8c-32.41,-8.2 -25.39,-89.1 19.53,-80.9c33.2,5.9 35.54,94.9 -19.14,80.9l-0.39,0zm132.01,140.6c7.82,-19.9 10.16,-220.3 3.13,-251.5c-1.56,-7.9 -15.62,-28.6 -23.05,-30.5c-19.13,-5.9 -33.98,5.5 -49.99,3.5c-22.65,-1.9 -41.39,-18 -73.43,-7.4c-82.41,26.5 -90.22,166.8 -19.52,212.1c18.74,12.1 62.1,13.6 89.05,15.6c3.52,32.4 4.29,79.7 38.66,81.2c14.46,0.8 30.47,-12.9 35.15,-23zm-379.62,-93.4c-46.87,-9.7 -42.19,-124.6 25.78,-109.7c45.7,10.1 43.74,123.8 -25.78,109.3l0,0.4zm-31.25,114.1c208.96,33.6 223.41,-278.5 57.03,-307.4c-202.72,-35.2 -230.44,279.3 -57.42,307l0.39,0.4zm-138.65,-14.1c78.12,-58.6 -57.02,-86.7 -70.3,-119.1c-23.83,-57 28.12,-200.8 -76.55,-173.8c-13.28,3.5 -29.69,30.1 -32.42,43.7c-10.93,54.3 -2.73,232.4 21.88,249.6c27.33,18.8 55.46,-1.5 97.25,5.1c1.17,0.4 24.22,10.9 27.33,10.9c16.8,-0.4 22.66,-9 32.81,-16.4zm-300.73,-231.6c35.15,7.8 33.59,94.9 -19.53,84c-35.94,-7.4 -32.42,-95.3 19.53,-84zm44.13,-39.8c-2.34,-1.6 -5.47,-10.6 -7.81,-12.1c-22.27,-11.7 -49.99,-11.7 -83.97,-11.7c-1.57,-4.3 -7.43,-6.3 -7.82,-7.9c-9.37,-26.9 0,-61.3 -27.73,-67.9c-23.04,-5.1 -43.74,10.5 -48.03,24.2c-3.13,9.4 0.77,21.9 0.39,31.6c-5.08,54.3 -4.69,133.2 0,187.5c0.78,10.2 -3.13,25.8 -0.39,35.6c1.17,3.5 16.4,22.6 20.3,23.8c18.36,6.2 44.13,-3.1 63.28,0c1.56,0.4 17.18,7.8 19.92,8.2c122.25,13.6 148.8,-152.7 71.86,-211.3" id="path74"/>
    <path fill="#100f0d" fill-rule="nonzero" d="m-8929.508,10146.737622c0,-43.3 27.031,-83.8 127.043,-83.8c48.653,0 118.93,37.8 118.93,75.7c0,45.9 -35.141,91.9 -118.93,91.9c-75.683,0 -127.043,-27.1 -127.043,-83.8zm-5.402,-386.5c0,-64.9 48.652,-102.8 132.445,-102.8c113.52,0 162.176,43.3 162.176,102.8c0,45.9 -51.356,94.6 -124.336,94.6c-108.117,0 -170.285,-19 -170.285,-94.6zm164.883,-308.2l-267.594,0c-124.336,0 -164.879,51.4 -164.879,202.7l0,613.6c0,110.8 54.0586,164.9 162.172,164.9l294.625,0c210.832,0 351.383,-81.1 351.383,-237.9l0,-35.1c0,-83.8 -59.469,-124.4 -59.469,-189.2c0,-64.9 97.309,-108.1 97.309,-240.6c0,-159.5 -121.633,-278.4 -413.547,-278.4" id="path76"/>
    <path fill="#100f0d" fill-rule="nonzero" d="m-7967.27,10285.937622l0,-440.6c0,-51.4 16.22,-91.9 45.96,-110.8c18.92,-10.8 40.54,-21.7 137.84,-21.7c97.31,0 183.81,-43.2 183.81,-137.8c0,-100 -48.66,-156.8 -208.13,-156.8l-308.14,0c-132.445,0 -183.8,73 -183.8,205.5l0,662.2c0,102.7 51.355,183.8 156.78,183.8c110.82,0 175.68,-54.1 175.68,-183.8" id="path78"/>
    <path fill="#100f0d" fill-rule="nonzero" d="m-7140.2,9898.037622c0,-32.4 18.93,-59.5 45.96,-59.5c32.43,0 54.05,19 54.05,56.8c0,37.8 -24.32,78.4 -51.35,78.4c-27.03,0 -48.66,-37.9 -48.66,-75.7zm240.57,394.6l275.7,-713.5c27.03,-67.6 -43.25,-132.5 -127.04,-132.5c-45.95,0 -89.2,10.8 -135.15,59.5c-89.19,94.6 -100.01,83.8 -189.2,86.5c-62.17,2.7 -105.42,-5.4 -129.74,-16.2c-18.92,-8.2 -29.73,-13.6 -35.14,-19c0,0 -18.92,-18.9 -56.76,-56.7c-40.55,-35.2 -83.8,-54.1 -129.74,-54.1c-78.39,0 -121.63,37.9 -121.63,100c0,43.3 5.4,56.8 10.81,70.3l259.48,689.2c32.43,86.5 91.9,132.5 175.69,132.5c135.14,0 175.69,-78.4 202.72,-146" id="path80"/>
    <path fill="#100f0d" fill-rule="nonzero" d="m-6532.06,9625.037622l0,451.4c0,81.1 -27.02,110.8 -129.74,137.8c-70.27,19 -105.41,56.8 -105.41,110.9c0,75.6 56.76,113.5 170.29,113.5l408.14,0c124.34,0 175.69,-37.9 175.69,-116.2c0,-51.4 -32.43,-94.6 -102.71,-108.2c-105.42,-18.9 -132.45,-56.7 -132.45,-137.8c0,-124.3 0,-321.7 0,-454.1c0,-132.5 -62.16,-175.7 -135.14,-175.7c-102.71,0 -148.67,56.8 -148.67,178.4" id="path82"/>
    <path fill="#100f0d" fill-rule="nonzero" d="m-5433.61,10131.037622c2.84,43.2 -21.47,85.4 -121.26,92c-48.55,3.2 -121.17,-29.9 -123.65,-67.7c-3.02,-45.8 29.02,-94 112.63,-99.5c75.52,-5 128.54,18.6 132.28,75.2zm-132.67,-275.5c-72.94,2.6 -126,-44.2 -127.63,-90.1c-2.12,-59.4 44.97,-104.4 158.42,-108.4c83.74,-3 133.71,33.1 136.02,97.9c2.69,75.6 -58.76,96.8 -166.81,100.6zm37.01,-403.5l-267.59,0c-124.34,0 -158.2,111.1 -164.88,202.7l0,613.6c0,110.8 76.38,154.2 184.5,154.2l272.29,10.7c210.83,0 339.33,-66.7 339.33,-223.5l0,-53.9c-18.87,-78.1 -56.59,-115.6 -56.59,-180.5c0,-64.9 106.49,-112.4 106.49,-244.9c0,-159.5 -121.64,-278.4 -413.55,-278.4" id="path84"/>
    <path fill="#100f0d" fill-rule="nonzero" d="m-4804.9,9958.837622c0,-191.9 91.9,-286.5 216.23,-286.5c135.15,0 227.05,108.1 227.05,270.3c0,132.4 -67.57,278.4 -229.75,278.4c-81.09,0 -213.53,-62.2 -213.53,-262.2zm724.39,-13.5c0,-313.5 -218.94,-527.1 -502.75,-527.1c-275.7,0 -500.05,221.7 -500.05,502.8c0,151.3 43.26,283.8 121.64,375.7c91.9,108.1 218.94,170.3 386.52,170.3c267.59,0 494.64,-224.4 494.64,-521.7" id="path86"/>
    <path fill="#100f0d" fill-rule="nonzero" d="m-3818.34,10388.637622c37.85,-43.3 83.79,-143.3 127.05,-143.3c48.65,0 62.16,37.9 124.33,124.4c40.54,56.7 97.31,97.3 194.61,97.3c102.71,0 154.07,-37.9 154.07,-105.4c0,-108.2 -262.19,-359.5 -291.92,-502.8c-10.81,-48.6 -8.11,-218.9 -10.81,-283.8c-2.71,-108.1 -72.98,-156.8 -159.47,-156.8c-205.43,0 -175.7,178.4 -175.7,416.3c0,118.9 -297.32,421.6 -297.32,527.1c0,54 35.14,105.4 148.66,105.4c72.98,0 137.85,-21.7 186.5,-78.4" id="path88"/>
    <path fill="#ffffff" fill-rule="evenodd" d="m3941.6,10904.937622c-10.4,-67.8 -33.6,-196.9 -15.5,-282.4c18.1,-85.5 111.4,-269.4 171,-318.6c59.6,-49.3 240.9,-83 300.5,-72.6c59.6,10.4 238.3,88.1 362.7,207.3c124.3,119.1 305.7,357.5 326.4,406.7c20.7,49.2 95.9,243.5 142.5,419.7c46.6,176.2 77.7,365.3 54.4,515.5c-23.3,150.3 -25.9,212.5 -114,261.7c-88.1,49.2 -111.4,62.2 -220.2,59.6c-108.8,-2.6 -134.7,18.1 -235.7,-51.8c-101.1,-70 -212.5,-155.5 -285,-253.9c-72.5,-98.5 -145.1,-134.7 -259.1,-336.8c-114,-202.1 -212.4,-453.4 -228,-554.4" id="path90"/>
    <g id="g92" transform="translate(262.5,1342.5) scale(10) ">
     <text x="-696.356971" y="686.904547" font-weight="normal" font-size="87.807602px" font-family="BlurBoldPlain" fill="#100f0d" fill-rule="nonzero" transform="matrix(0.866056,-0.499947,-0.499947,-0.866056,1394.05,1189.14) " id="text96">
      <tspan x="0" y="0" id="tspan94">!</tspan>
     </text>
    </g>
    <path fill="#ffffff" fill-rule="nonzero" d="m4467.1,11601.537622c0,-248.5 -161.2,-450 -360,-450c-198.8,0 -360,201.5 -360,450c0,248.5 161.2,450 360,450c198.8,0 360,-201.5 360,-450" id="path98"/>
    <path fill="#100f0d" fill-rule="nonzero" d="m1169.7,13268.237622c-24.6,-37.6 -38.6,-96 3.8,-169.1c20.6,-35.6 73.9,-51.3 95.2,-18.9c25.9,39.4 35.1,101.9 -0.1,163.9c-31.6,56.4 -66.2,74.1 -98.9,24.1zm-224.2,-335.5c-37.2,-56.9 -39.6,-127.1 -2,-184.7c51.5,-77.2 101,-68.8 133.8,-18.8c25.7,39 27.6,112.8 -5.1,163.2c-48.3,75 -82.9,107.3 -126.7,40.3zm-103.5,-383.9c-41.8,58.2 -80.41,121.2 -115.36,189.3c-48.18,95.6 -29.73,179 59.08,315.5c120.58,185.3 241.08,370.5 361.58,555.7c65.7,101 111.6,97.4 147.7,3.5c33,-84.8 70.6,-163.1 112.1,-235.7c89.4,-155.9 121.1,-303.3 35.2,-433.2c-6.4,-9.7 -12.8,-19.4 -19.2,-29.1c-45.8,-69.2 -99.3,-68.1 -134.8,-122c-36,-54.7 -7.2,-145.2 -78.7,-253.4c-84.1,-127.3 -227.3,-176.3 -367.6,9.4" id="path100"/>
    <path fill="#100f0d" fill-rule="nonzero" d="m1734.3,12792.837622c-76.9,-115.4 -153.8,-230.8 -230.7,-346.2c-26.9,-40.3 -37.8,-79.1 -28.4,-105.8c6.8,-15.8 14.6,-33.7 80,-69.7c65.4,-35.8 104.6,-95.9 56.9,-166.8c-49.9,-74.4 -115.2,-105 -225.2,-51.3c-70.3,35.3 -137.9,74.5 -202.3,118.3c-82.8,56.7 -72.1,143.3 -0.7,251.3c119.4,180.4 238.7,360.7 358.1,541.1c55.9,84.5 126.2,119.6 185.7,62.8c63,-59.1 74.6,-131.7 6.6,-233.7" id="path102"/>
    <path fill="#100f0d" fill-rule="nonzero" d="m2108.1,12210.337622c-15.7,-23 -14.5,-47 6,-53.7c24.6,-8 50.1,0.1 68.2,26.5c18.1,26.5 19,61 -1.3,68.1c-20.3,7 -54.7,-14 -72.9,-40.9zm368.9,212.6c-42.9,-188 -81.6,-368.7 -116.7,-542.8c-9,-49.3 -95.6,-80.5 -162.9,-66c-36.9,8.1 -66.5,23.1 -80,65.4c-25.8,82.7 -39,78 -106.9,99.4c-46.6,15.8 -83.4,20.4 -107.1,18.5c-18.4,-1.3 -29.2,-2.5 -35.9,-5.1c0,0 -23.5,-9 -70.6,-27c-47.8,-15.4 -89.6,-18.4 -123.6,-6.2c-58,20.7 -70,61.9 -38.8,108.3c21.8,32.3 32.4,40.7 43.1,49.2c177.3,145.2 353.3,287.2 527.6,425.6c65.6,52.2 130.2,65.5 191.1,40c98.6,-40.9 92.3,-105.5 80.7,-159.3" id="path104"/>
    <path fill="#100f0d" fill-rule="nonzero" d="m2455,11894.037622c68.2,98.4 136.3,196.9 204.5,295.3c36.7,53.1 28.9,78.3 -37.8,120.7c-45.5,29.3 -54.6,63.9 -29.5,100.4c35.3,51.3 95.4,61.4 181.8,32.3c103.7,-34.7 208.4,-67.8 313,-101.1c95.6,-30.6 118.7,-66.4 85.2,-113.9c-21.9,-31.2 -65.6,-49.9 -126.2,-42.4c-90.3,12.1 -128.2,-5.9 -163.8,-56.9c-54.6,-78.1 -141.3,-202.2 -199.4,-285.5c-58.1,-83 -128,-100.7 -187.6,-89.3c-83.8,15.9 -95.3,60.6 -40.2,140.4" id="path106"/>
    <path fill="#100f0d" fill-rule="nonzero" d="m3348.2,12046.137622c-17.9,-25.2 -13.5,-54.6 62.9,-79c37.2,-11.8 105.3,-8.9 120.3,11.9c18.3,25.4 10.8,60.9 -52.3,83.1c-57,19.8 -107.5,16.9 -130.9,-16zm-163.6,-222.4c-26.8,-37.7 -3.8,-69 61.8,-86.4c88.8,-23.8 143,-11.7 166.7,21.2c18.2,25.2 -1.3,64.9 -57.4,81.9c-83.2,25.1 -139.9,27.1 -171.1,-16.7zm4.1,-209.1c-70.5,17.4 -141.8,33.5 -213.7,48.7c-100.4,20.9 -111.8,58.1 -47.2,149.6c87,123.3 174,246.6 261,369.9c47.2,67 111.8,86.3 193.8,58.2c74.5,-25.5 148.3,-52 220.9,-80.1c155.7,-60.9 222.4,-152.8 162.4,-234.9c-4.6,-6.2 -9.1,-12.4 -13.6,-18.6c-32.2,-44.2 -91.2,-48.1 -116.5,-83c-25.2,-34.7 29.3,-85.4 -21.5,-155.1c-61.6,-84.1 -195.2,-111.3 -425.6,-54.7" id="path108"/>
    <path fill="#100f0d" fill-rule="nonzero" d="m3938.7,11677.237622c-70.9,-95.7 -41.4,-172.7 40.1,-221.2c88.5,-52.8 180.8,-47.2 236.7,26c45,59 57.9,162.2 -42.7,235.7c-50.1,37.1 -159.9,59.5 -234.1,-40.5zm436.4,-342.1c-102.6,-131.7 -292.5,-103.9 -483.3,-1.8c-184.8,100 -270.5,268.7 -161.4,418.4c57.7,78.8 139.3,134.4 227.3,152.6c103.2,21.4 210.3,1.7 312.7,-77.4c163.2,-127.2 201.5,-367.6 104.7,-491.8" id="path110"/>
    <path fill="#100f0d" fill-rule="nonzero" d="m4695.1,11542.837622c3.2,-44.3 -23.5,-163.8 -5,-195.5c20.5,-36.2 61,-23 111.8,-38.9c32.9,-10.7 101.6,-3.1 133,-89.6c32.6,-92.1 -22.8,-130.2 -41.9,-153.3c-26.8,-31 -186.7,77.5 -246.8,38.8c-19.1,-10.2 -54.6,-71.4 -75.5,-94c-34,-39 -94.7,-55.1 -135.3,1.6c-98.9,131.3 -29.7,182.2 48.2,281.9c39.9,50.6 -12.8,360.6 21.5,405.7c18,23.5 59.7,22 130.4,-36.7c49.5,-41.2 55.8,-62.6 59.6,-120" id="path112"/>
    <g id="g114" transform="translate(262.5,1342.5) scale(1.3318300247192383) ">
     <path fill="#100f0d" fill-rule="evenodd" d="m9189.737345,2314.899158l-18.5,12.91c-25,-25.75 -14.5,-50.38 -45.5,-78.16c-38.4,-34.47 -84.1,-44 -122.9,-97.24c14.3,-6.38 12.9,-6.75 22.7,-6.75c44.9,1.8 167.7,81.54 161.7,152.64c0.8,5.56 1.6,11.11 2.5,16.6" id="path116"/>
    </g>
    <g id="g118" transform="translate(262.5,1342.5) scale(1.3401800394058228) ">
     <path fill="#100f0d" fill-rule="evenodd" d="m9229.616782,2205.172871c-0.2,18.13 1,18.57 -11.6,35.44c-32.1,-25.07 -16.7,-55.37 -49.4,-83.72c-33.8,-29.33 -86.5,-37.38 -127.8,-65.51c0.6,-3.51 1.2,-6.94 1.9,-10.38c54.4,-25.96 194.8,32.83 186.9,124.17" id="path120"/>
    </g>
    <g id="g122" transform="translate(262.5,1342.5) scale(1.1982300281524658) ">
     <path fill="#100f0d" fill-rule="evenodd" d="m8080.449277,4089.920557c5.9,-7.08 60.6,2.22 84.6,8.89c75.9,21.03 153.6,3.48 233.5,-13.32l2.3,24.93c-19.2,11.45 -35.2,19.89 -46.7,37.87c-99.4,12.56 -205.3,27.44 -278.1,-16.06l-16.6,1.55c0.8,-34.45 -0.4,-28.58 21,-43.86" id="path124"/>
    </g>
    <g id="g126" transform="translate(262.5,1342.5) scale(1.2053699493408203) ">
     <path fill="#100f0d" fill-rule="evenodd" d="m8173.539519,3969.228887c-36.1,-8.59 -71.2,-32.86 -112,-39.59c-1.3,-23.61 0,-35.62 3.6,-50.32c110.2,-1.48 245,95.44 370.4,40.54c6,12.83 8.8,19.09 12.1,40.54c-89.8,14.18 -187.7,29.38 -274.1,8.83" id="path128"/>
    </g>
    <g id="g130" transform="translate(262.5,1342.5) scale(1.322450041770935) ">
     <path fill="#100f0d" fill-rule="evenodd" d="m9129.629948,2489.568072c-54.9,250.29 -303.4,545.34 -670.6,464.81c-170.8,-37.43 -316.5,-115.39 -457.7,-185.26c-71.9,-35.62 -146.2,-43.48 -219.9,-78.26c-76.8,-36.23 -154.6,-85.3 -231.7,-122.81c-66.8,-32.44 -139.9,-39.47 -204.2,-72.13c-55.2,-28.13 -104.8,-80.31 -161.7,-106.47c-9,-4.09 -52.7,4.91 -52.7,4.91c-18.5,-15.35 1.2,-25.71 -26.1,-35.54c-33,-9 -171,92.41 -217.5,111.39c-43.5,17.77 -81.1,13.76 -110.2,40.6c9.3,41.9 114.8,101.63 157.1,137.25c114.6,96.49 223.9,199.1 352.5,278.65c52.4,32.36 99.7,106.24 163.2,121.51c64.4,15.43 144.3,-32.74 185.4,-47.64c177,-64.2 516.4,-119.7 588.9,44.01c40.5,53.46 -21.7,110.9 -40.1,140.43c-71.6,115 -189.6,181.91 -335,236.19c-49,18.28 -166.4,18.78 -184.1,62.67c-212.7,-43.77 -332.7,-164.86 -481.8,-281.75c-67.4,-52.87 -152.2,-84.78 -211.2,-147.48c-26.5,-28.2 -78.4,-82.95 -108.3,-103.82c-85,-59.29 -163.8,-118.95 -244.8,-182.31c-14.5,-18.91 -28.8,-37.81 -43.3,-56.72c-48.5,-35.61 -119.1,-65.48 -154.9,-114.71c-104.9,11.04 -222.2,60.42 -337.4,46.58c-169.6,-20.41 -350.9,7.72 -510.8,-20.87c-197.5,-35.31 -384.5,-99.51 -554.9,-168.7c-56.8,-22.99 -112.7,-31.76 -165.1,-60.57c-39.7,-21.78 -76.1,-64.5 -114.5,-88.09c-22.4,-13.77 -54.3,-20.19 -71.9,-38.87c-57.1,-60.27 -89,-119.48 -139.4,-192.07c-27.4,-39.39 -69.9,-56.18 -99.5,-89.45c-59.5,-67 -67,-138.91 -76.4,-251.13c34.4,-40.75 37.7,-84.69 112.7,-93.99c-34.7,-118.64 -45.4,-416.42 -0.4,-493.63c-15.3,-17.99 -105.2,-19.13 -132.2,-33.27c-130.8,-69.04 -264.6,-228.96 -24.3,-385.65l-41.4,4.47c-182.6,-3.25 -365.2,-6.58 -547.7,-9.83c-189.7,2.42 -446.7,14.89 -652.5,7.48c-99.6,-3.63 -209.7,8.85 -296.38,-2.79c-83.11,5.14 -166.13,10.35 -249.16,15.57c-77.13,-10.43 -167.04,12.55 -250.6,0.46c-222.31,-32.22 -449.69,-5.6 -635.86,-59.82c-197.74,-57.62 -382.77,-216.26 -335.06,-499.22c10.29,-60.8 67.83,-133.31 105.79,-169.31c117.28,-111 461.11,-180.87 630.57,-161.14c76.68,8.93 151.08,0.31 221.1,9.83c80.99,0.08 162.05,0.08 243.04,0.16c145.41,19.88 282.88,-19.51 425.16,-1.52l188.2,-17.54c61.6,8.32 144.5,3.33 206.1,11.27l113,-10.52c55,7.49 125.5,5.9 183.5,13.31l112.9,-10.51c56.1,7.56 144,3.86 205.4,3.71l143,-13.31c147.9,19.81 381.1,-5.97 508.7,-1.74c199.2,6.65 394.4,-31.23 576.4,-8.01l143.1,-13.31c190.9,25.63 346.2,-22.69 539.5,3.02c72.9,-4.23 146,-8.54 219,-12.78c100.4,14.07 207.5,-30.85 325.2,-15.04c232.3,31.22 595.5,36.52 730.7,-70.48c74.1,-58.68 62.9,-32.97 78.1,-101.86c7.9,-36.07 7.8,-42.64 -13.9,-67.07c-29.5,-148.13 -447.6,-148.81 -598.4,-174.67c-273.4,-46.96 -1189.8,-75.02 -1464.5,40.22c-53.5,22.54 -116.4,61.63 -157.9,98.23c-39.4,34.71 -57.3,119.63 -98.9,161.14c-160,159.1 -402.3,46.81 -465.6,-25.1c-217.8,-247.12 -249.6,-894.101 -107.3,-1235.509c67.3,-161.292 239.9,-334.9836 484.2,-265.1914c68.3,19.5097 106.7,78.5678 155.6,122.1984c13.6,7.033 23.6,1.813 30.8,4.764c34.4,14.819 104.3,201.141 129.3,246.134c49.2,88.923 236.4,301.785 320.3,342.391c298.5,144.127 1121.8,190.103 1498.5,246.966c189.8,28.587 210.6,21.857 360.4,110.627c138.9,82.35 273.1,236.68 225.7,431.62c-35.6,146.7 -39.4,206.36 -168.4,277.21c-61.3,33.65 -123.7,64.58 -188.4,87.34l-128,11.87c-96.6,31.92 -277.7,3.41 -391.8,33.88c-66.9,17.92 -162.2,-10.51 -234.8,6.65c-97.8,23.22 -402.1,12.63 -524.4,-4.38c-101.3,-0.68 -202.6,-1.44 -303.9,-2.12l-143.1,13.31c-55.5,-7.11 -135.4,1.81 -190.3,-5.07l-128.1,11.88c-127.4,-16.72 -258.1,-12.86 -374.6,-0.61c2.9,24.8 6.8,53.77 -1.3,68.43c10.1,115.25 -6.5,244.47 33.8,336.12c74.8,-7.26 292.2,-26.31 341.6,-1.36c133,-13.76 66.8,-43.48 127.9,-95.43c63.9,-54.44 158.5,-47.41 239.5,-37.5c1.8,-7.87 121,43.1 168.6,98.22c15.2,17.7 19,42.5 35.7,57.47c18,159.55 -43.4,293.24 -158.1,341.26c-119.7,50.06 -325.2,21.55 -357.1,-99.43c-186.9,2.19 -301.6,-20.19 -518.1,-13.92c-69.6,2.04 -194.7,-6.05 -263.3,21.1c-60.1,23.82 -87.4,53.31 -130.1,88.7c1.2,177.7 52.9,160.91 151.1,236.53l90.4,-8.4c11.7,-9.3 9.9,-40.68 17.6,-54.82c30.7,-56.26 152.5,-180.27 266,-161.36c200.8,33.34 250.1,246.5 322,440.84c14.6,39.7 64.5,147.76 40.8,193.66c-30.5,98.6 -276.1,264.36 -388.9,309.57c-48.5,19.44 -141.1,53.09 -187.5,25.03c-49.6,-18.3 -80.5,-101.1 -91.4,-166.13c-34.5,9.23 -55.6,34.86 -62.2,66.47c-38.8,73.12 26.9,172.33 64.8,206.66c24.8,22.53 44.3,53.69 74.7,68.96c124.5,62.61 356.5,2.57 433.2,-78.18c21.6,-1.22 32.5,0 45.9,3.32c-6.7,69.34 -299,203.26 -404.3,143.9l-22.6,2.04c23.3,63.52 116.4,113.2 179,127.72l60.2,-5.6c24.7,4.92 50.7,26.09 78.8,30.63c180.5,28.88 380.6,-116.98 467.9,-195.39c76.3,-68.59 95,-183.53 190.5,-237.97c48.8,69.57 111.6,114.25 181.7,157.81c230.5,142.92 562.5,335.97 939,216.42c67.6,-8.78 135.1,-17.62 202.6,-26.39c9.2,1.05 40.9,10.36 61,1.96c126.7,-53.23 298.4,-174.22 295.7,-331.27c-110.2,13.3 -343.9,88.85 -430.6,24.8c-7.7,-1.82 -15.5,-3.63 -23.2,-5.45l-4.2,-45.14c41.4,0.23 59.7,16.48 93.2,21.7c97.3,15.28 308.2,-22.68 381.8,-58.3c80.1,-38.72 115.9,-113.27 174.2,-168.1c-1.9,-47.86 -3.8,-95.8 -5.7,-143.74c-33,-27.3 -65.9,-54.6 -98.8,-81.9l-30.1,2.8c6.2,71.91 -4.6,119.78 -22.3,169.08c-28.5,-2.72 -27.6,-8.55 -47.2,-18.37c-86.1,106.62 -429.8,220.49 -650.7,189.64c-103.8,-14.59 -207.9,-9.68 -306.8,-32.29c-223,-50.89 -402.6,-142.76 -563.9,-266.47c-5.1,-115.09 63.5,-243.64 106.1,-328.86c125,-249.99 422.4,-467.39 815.3,-379.6c28,2.5 56.1,4.92 84.2,7.41c57.6,22.31 137.8,87.72 191.9,103.68c19.8,-4.39 39.7,-8.78 59.5,-13.16c23.5,7.49 45.2,44.69 73.4,53.91c112.9,36.9 236.6,8.17 331.2,-30.77c54,-22.16 105.2,-34.56 137.5,-73.5c79.8,-96.34 62.9,-260.5 -3.5,-364.25c-40.3,-63.06 -77.4,-114.94 -142.6,-146.24c-208.7,-100.05 -583.6,-13.24 -651.4,182.08c-55.4,-2.11 -144.5,41.59 -240.2,29.95c-204.6,-24.88 -552.1,44.46 -764.8,40.83c-3.3,-7.34 -6.5,-14.67 -9.7,-21.93l13.7,-16.48c108.5,-5.67 317.3,-37.05 424.6,-24.35c84.3,10.05 189.5,-25.79 264.2,-16.94c73.2,8.7 190.1,-44.76 249.1,-15.58c39.7,-16.25 78,-110.32 123.7,-140.57c183.6,-121.74 567.1,-171.65 714,1.97c61,71.98 159.2,219.67 125.4,368.03c-13.3,58.14 -78.6,109.56 -50.3,194.56c134.2,402.96 109,836.85 -47,1128.28c-47.7,89.08 -106.6,209.91 -204.1,254.45l1.3,15.05c323.3,119.85 651.2,261.03 1024.2,314.87c89.2,12.85 137.7,-44.77 183.3,-70.25c105.8,-59.06 173.6,-117.36 295.4,-171.73c31.6,-14.14 102.3,-56.94 140.3,-43.4c83.4,-6.43 106,33.04 157.6,61.32c7.4,59.51 30.6,128.32 17.4,188.22" id="path132"/>
    </g>
    <g id="g134" transform="translate(262.5,1342.5) scale(1.1882200241088867) ">
     <path fill="#ffffff" fill-rule="evenodd" d="m4889.103272,766.221814c263.7,14.3 517.7,2.1 782.8,7.66c134.5,2.86 306.8,9.25 325,-64.3c17.5,1.76 16.3,0.59 25.9,6.06c7.2,11.11 3.7,10.35 -6.1,25.92c-19.7,81.8 -125,91.98 -236,98.05l1.6,16.74c35,6.57 56,26.77 87.7,34.09c30.9,7.15 68.8,-4.3 93.8,8.16c261.2,-18.94 204.7,-94.59 289.7,-246.67c-8.9,-129.61 -112.2,-195.08 -206.1,-217.47c-55.6,-13.3 -153.9,0.51 -182.8,33.83c-25.4,11.95 -23.3,20.03 -38.8,37.45c7.7,10.1 185.5,45.79 207.3,48.39c-0.1,31.65 -3.6,31.73 -12,51.76c-60.3,-11.27 -120.5,-22.55 -180.7,-33.91l-125.7,11.7c-68.8,-8.51 -157.1,-4.97 -220.9,-13.22l-109,10.1c-174.1,-21.54 -375.6,21.88 -549.4,0.34l-167.6,15.57c-158.4,-21.88 -355.3,7.74 -525,-10.36c-25.1,-2.6 -63.3,-8.66 -76.6,-5.55c-53.3,2.19 -107.4,-4.04 -160.8,-1.93c-29.6,8.58 -74.2,3.78 -118.4,-1.69c-66.8,-8.16 -153.8,22.56 -231.3,13.05c-108.3,-13.3 -242.3,24.06 -366.8,8.75c-201.9,-24.83 -408.7,47.72 -594.7,13.04c-71.3,-13.29 -162.7,9.18 -241.1,-2.94c-211.9,-32.74 -463.31,-18.18 -585.17,-156.87c-31.06,-35.44 -82.48,-114.88 -3.45,-219.49c35.26,-113.7 461.02,-147.11 701.02,-141.22c140.2,-7.41 280.4,-14.81 420.6,-22.22c138.7,-12.2 225.6,-22.3 351.4,-7.32c83.8,-7.83 253,-6.57 336.8,-14.39c153,18.85 485.1,18.01 607.5,-11.45c109.1,-26.17 419.4,62.45 455.6,-8.5c179.2,51.09 431.4,-23.9 625.6,1.01c100.6,-9.34 197.6,4.21 298.2,-5.13c172.7,24.57 416.3,-27.69 624.8,-7.41c106.8,-1.51 213.8,-3.03 320.7,-4.46c133.8,19.53 309.4,-1.09 449.6,17.34l159.2,-14.81c157.2,21.96 452.5,12.28 605.2,-36.53l158.3,12.96c141.5,-43.09 161.3,-49.32 252,-98.38c78.7,-42.59 70.8,-78.44 125.5,-144.25c77.8,-93.67 16.7,-36.19 43.4,-175.98c-0.9,-39.38 -12.1,-98.89 -12.9,-138.27c2.4,-16.5 -18.7,-61.69 -59,-112.1c-109.7,-137.35 -93,-131.96 -302.5,-225.55c-63.9,-28.44 -150.2,-36.19 -241.3,-49.4c-149.3,-21.63 -289.5,-4.88 -442.5,-32.07c-125.9,-22.47 -730.3,-48.47 -846.2,-70.35c-104.3,-19.7 -216.4,-86.014 -307.2,-125.569c-91.7,-39.976 -225.2,-136.171 -290,-209.725c-45.3,-51.508 -86.2,-135.246 -142.8,-172.694l-1.6,-16.75l-16.7,1.598c28.3,321.828 54.2,574.81 -43.3,806.92c-16,37.96 -16.6,82.65 -40.1,113.62l1.5,16.75c38.8,-10.86 66.1,-36.61 96.7,-51.17c63.6,-30.47 135,-22.05 206.3,-53.02c18,-7.83 50.3,-32.66 72.3,-40.57c102.9,-36.61 216.1,10.02 303.2,-11.28c117.5,-28.61 756.3,1.43 866.6,17.68c151,22.22 308.2,29.71 444.3,51.67c69.5,11.2 116.5,9.43 179.9,25.5c87,22.13 255.9,73.64 308.6,156.12c48.2,94.09 56.4,91.9 31.5,165.79c-68.4,204.09 -652.5,233.37 -1019,190.29c-114.7,7.82 -229.6,15.65 -344.3,23.56c-249.3,-31.22 -495.3,33.66 -752,2.27l-167.7,15.57c-161.9,-20.45 -362.8,14.81 -515,5.64c-213.9,-12.96 -462.4,30.38 -675.8,3.62c-111.6,-13.97 -231.9,25.75 -328.4,13.63c-123.7,-15.48 -257,15.91 -371.8,0.76c-111.9,-14.73 -226.7,10.1 -329.9,-3.11c-200.4,-25.59 -442.7,42.41 -640.8,17.33c-64.5,3.2 -129,6.31 -193.5,9.51c-200.9,-9.51 -396.2,11.45 -597.2,1.94c-98.8,-12.54 -217.46,9 -278.73,31.56c-89.54,32.99 -249.7,93.5 -273.85,145.26c-21.21,45.36 -77.68,104.36 -86.6,160.15c-44.52,280.51 172.02,455.98 456.81,488.63c48.23,3.96 96.57,7.91 144.77,11.87c547.6,71.7 1209,13.38 1784.7,23.31c84.8,1.43 162,-8.83 218,-4.96c250.4,17.33 542.9,-3.2 794.7,10.52" id="path136"/>
    </g>
    <path fill="#ffffff" fill-rule="evenodd" d="m5848.4,1612.437622c6.3,-84.2 -6.8,-58.9 25.8,-119.6l-1.9,-19.9l-69.7,6.5c-11.3,107.9 10.4,118 -4.6,238.1c-8.4,66.7 -8.3,230.4 5,270.7c22.9,-4.4 27.9,-4.6 39,-13.7l19.9,-1.8c-12.5,-129.2 -19.8,-275.9 -13.5,-360.3" id="path138"/>
    <path fill="#ffffff" fill-rule="evenodd" d="m5913.3,1877.537622c10.4,35.7 1.9,76.4 19.2,98.7c38.7,19.9 307.8,3.1 401,-7.2c-8.8,-104.2 -17.3,-410 13.3,-469.9c-3.8,-28.3 -8,-42.2 -15.5,-58.8c-57.4,6.6 -169.5,30.7 -210.1,9.4c-58.9,3.2 -197.2,1.1 -217.2,40.3c-16.3,40.2 -7.9,328.6 9.3,387.5" id="path140"/>
    <path fill="#ffffff" fill-rule="evenodd" d="m6384.3,1974.337622c25.3,-1.3 37,-2.2 50.7,5.4c22.6,-5.4 24.3,-7 38.9,-13.7c-13.1,-131 -31.7,-292.2 -24.3,-369.4c9.5,-98.8 -19.5,-61.7 14.8,-128.5c-4.2,-9.7 -8.5,-19.3 -12.7,-29l-59.8,5.6c8.8,210 -9.5,362.1 -7.6,529.6" id="path142"/>
    <path fill="#ffffff" fill-rule="evenodd" d="m5749.2,1481.037622c-77.6,5.2 -197,14.5 -270.7,5.1c-145.4,-18.6 -354.4,-13.8 -457.6,-24.5c-92.9,8.7 -233.6,8.4 -326.5,17c-127.2,-16.9 -299.2,0.1 -415.8,-8.2c-66.8,-4.8 -223.6,0.1 -273.8,8.7c-257,44 -522,10.5 -730.8,24.4c-256.2,17.2 -529,-1 -724.5,57.4c-196.9,58.8 -173.2,231.4 -127.7,283c128.3,145 379.5,130.5 598.2,168.7c80.6,2.5 160.7,0.1 241.3,2.7c463.1,12.1 517.6,-50 771.8,-16.6c153.3,20.2 278.3,-24.4 406,-7.6c84.6,11.2 246.1,-11.2 290.6,-6.9c64.1,6.2 327.9,-17.6 385.2,-15.7c199.5,6.5 425.6,9.7 633.8,11.3c-5.5,-203.6 6,-295.1 0.5,-498.8" id="path144"/>
    <path fill="#ffffff" fill-rule="evenodd" d="m6221.7,3386.037622c21.2,3.5 72.1,7 92.2,17.9c63.1,-6.2 131.5,-6.1 190,-18.3c43.4,-9.1 82.1,-15.8 135.3,-32.8c53.1,-17.1 112.3,-53.8 112.3,-53.8c-35.1,9.5 -121.9,37.3 -224.3,27.7c-42.2,-5.7 -82.9,-11.3 -122.8,-17.6c-65.1,-10.2 -128,-22.1 -191.3,-38.1l-7.6,8.8c2.3,37.7 5.4,81.2 16.2,106.2" id="path146"/>
    <g id="g148" transform="translate(262.5,1342.5) scale(1.1705199480056763) ">
     <path fill="#ffffff" fill-rule="evenodd" d="m8076.349926,1253.339466c-30,-45.28 -44.2,-92.7 -80.8,-129.77c-211.3,-214.02 -638.7,-426.57 -1042.3,-229.14c-151,73.82 -283.1,208.63 -353.6,350.28c-44.5,89.62 -47.8,208.71 -101.5,292.6c19.1,62.71 88.4,62.88 137.2,90.22c30.6,17.26 59.3,52.2 92.1,68.69c117.9,58.78 263.9,91.33 397.8,126.01c100.1,25.89 217,15.55 320.3,30.25c29.1,4.18 57.8,-7.69 77.4,1.45c276.5,-27 487.7,-79.8 623,-220.93c7.2,-10 21.3,-3.08 34.8,5.3l17,-1.54c16.1,-159.33 -59.7,-290.22 -121.4,-383.42" id="path150"/>
    </g>
    <g id="g152" transform="translate(262.5,1342.5) scale(1.1048699617385864) ">
     <path fill="#100f0d" fill-rule="evenodd" d="m7398.180736,3635.239188c36.8,33.58 80.2,77.93 110.8,116.98c44.1,5.55 112.5,5.68 143.4,-22.42c21.2,-16.18 16.5,-72.66 17.7,-101.71l36.1,-3.35c9.3,28.33 27.2,88.16 10.9,117.23c-16.1,56.31 -114.3,77.66 -192.4,81.51c-25.4,-12.79 -50.9,-25.57 -76.3,-38.36c-28.1,-29.78 -42,-67.09 -72.2,-93.31c-1.2,-22.9 -2,-33.49 4.8,-45.89c8.6,-8.15 1.9,-3.53 17.2,-10.68" id="path154"/>
    </g>
    <path fill="#100f0d" fill-rule="evenodd" d="m6826.6,5327.837622c31.1,12.9 112.1,-16.3 158.4,-24.8c1.7,-30 1.9,-34.1 15.3,-51.6l-1.9,-19.9l39.8,-3.7c8,26.6 17.5,36.1 5.6,59.7c2.3,27.2 3.8,45.7 -4.4,60.7c-40.5,35 -130.5,23.4 -175.5,56.5c-134.5,9.8 -258.1,-112.2 -301,-213.1l-10,0.9c5.2,-23.8 8.3,-23.2 16.2,-41.6c101.3,3.4 140.7,149.9 257.5,176.9" id="path156"/>
    <g id="g158" transform="translate(262.5,1342.5) scale(1.1507899761199951) ">
     <path fill="#100f0d" fill-rule="evenodd" d="m7450.115179,1686.286682c-46.6,-24.07 -236.1,3.3 -306.1,-6.44c-50,-6.94 -104.5,-22.07 -151.1,-29.63c-49.5,-1.21 -99.2,-2.43 -148.7,-3.65c-51.9,-27.11 -103.9,-54.31 -155.9,-81.51c-0.9,-29.63 0,-44.49 11.7,-62.13l-1.7,-17.29c57.9,-3.91 106.3,7.38 158.2,11.47c77.3,-13.03 154.7,-26.07 232,-39.02c148.2,-14.07 309.7,-2.17 449.2,-50.48c144.2,-49.97 291.1,-137.91 427.6,-188.14c6.5,8.09 13.1,16.25 19.6,24.34c10.2,7.38 3.1,21.81 -5.4,35.45c-36.6,55.7 -122,58.74 -192.5,87.68c-64.3,29.28 -128.5,58.48 -192.6,87.76c-91.5,17.21 -183,34.41 -274.5,51.71c-86.5,23.98 -223.5,-28.77 -302.8,28.15l-207.6,19.29l0.7,8.61c248.8,92.11 992.1,104.54 1223.2,-78.82c2.6,-3.13 5.3,-6.25 7.9,-9.38l0.8,8.6c8.9,2.09 17.8,4.17 26.8,6.25c6.3,164.24 -472.5,161.38 -618.8,197.18" id="path160"/>
    </g>
    <g id="g162" transform="translate(262.5,1342.5) scale(1.0293999910354614) ">
     <path fill="#100f0d" fill-rule="evenodd" d="m6780.523169,1394.832342c-23.1,-5.05 -22.5,-7.96 -40.5,-15.74c3,-40.02 9.6,-48.57 43,-62.46c81.5,-63.73 202.1,-10.49 282.3,-6.8l2.7,29.05c37.3,59.93 -203.8,111.33 -287.5,55.95" id="path164"/>
    </g>
    <path fill="#ffffff" fill-rule="evenodd" d="m6981.9,3316.337622l-9.9,0.9c-41,160.1 -429.8,367.6 -656.5,392.5c-52.5,-65.8 -90.4,-107.5 -101.9,-231.6c310.2,-21.9 593.6,-51.7 736.6,-232.4c0,-0.2 0,-0.2 0,-0.3c2.3,-8.1 1.8,-9.1 1.5,-16.2c-0.2,-6.6 -2.6,-9.7 -7.9,-11.7c-37.5,4.5 -194.9,37.5 -269,45.5c-35.2,-16.7 -87.5,0 -131.3,-7.9c-87.3,-15.8 -273.3,-36.4 -338.8,-79c-10.8,-13.2 -12.7,-31.7 -15.5,-58.8c21.5,-45 -5.6,-103.9 5.1,-161.2c36.8,-196.6 100.2,-387.9 343.2,-413.5c40.8,26.8 95.4,31.8 135.9,57.6c125.3,80 262.9,413.3 288.3,616l-0.4,0c0.8,4 1.5,8.5 1.8,12.2c0.1,-0.3 0.4,-0.5 0.6,-0.8l0.9,10c12.9,15.7 15.1,47.7 17.3,78.7" id="path166"/>
    <path fill="#ffffff" fill-rule="evenodd" d="m5932.5,-624.261378c24.5,-64 68.1,-187.801 126.1,-253.098c58.1,-65.301 230.1,-179.1014 306.2,-192.4022c76.1,-13.3008 250.4,47.1012 297.1,85.6012c46.6,38.399 163.6,194.399 212.7,359.5c49.2,165 88.9,461.899 82.6,514.898c-6.3,53 -37.1,259.1 -83.7,435.3c-46.6,176.1 -113.1,355.9 -207.6,475c-94.6,119 -127.6,171.8 -228.5,171c-100.9,-0.8 -127.6,-1 -220.9,-57.1c-93.3,-56.1 -126,-50.9 -179.3,-161.6c-53.2,-110.8 -107.7,-240.2 -122.1,-361.6c-14.4,-121.5 -59.5,-188.9 -58.6,-420.9c0.8,-231.998 39.5,-499.099 76,-594.599" id="path168"/>
    <path fill="#100f0d" fill-rule="nonzero" d="m2608.6,225.737622c6.5,-6.6 7.6,-41.1 11.9,-54.3c30.4,2.6 21.7,-22.5 56.4,-14.6c5.4,1.3 22.7,25.2 34.6,27.8c-6.5,21.3 -22.7,80.9 -22.7,83.5c-16.3,0 -42.3,-6.6 -57.5,0c-3.2,-21.2 -17.3,-27.8 -22.7,-42.4zm11.9,-487.698c-8.6,-19.903 -21.7,-26.5 -34.6,-41.102c9.7,-31.797 6.4,-55.699 11.9,-83.5c23.8,-2.699 72.6,-11.898 113.7,-13.297c6.5,19.899 18.4,18.598 33.6,26.5c-5.4,18.598 0,50.399 0,70.297c-43.3,25.199 -55.2,33.102 -124.6,42.402l0,-1.3zm364,487.698c18.4,-116.6 -48.7,-171 -33.6,-263.7c7.6,-47.7 77,-88.799 91,-140.498c59.6,-212.102 -69.3,-380.403 -192.8,-417.5c-83.4,-25.2 -314.2,-30.5 -377,15.898c-17.3,11.902 -52,70.203 -56.3,95.402c-17.4,92.797 -8.7,781.998 10.8,836.398c14.1,39.7 72.6,75.5 113.8,83.5c205.8,38.4 416,-26.6 444.1,-209.5" id="path170"/>
    <path fill="#100f0d" fill-rule="nonzero" d="m3215.6,445.837622c212.3,0 60.7,-520.9 112.7,-728.998c22.7,-88.8 149.5,-35.8 218.8,-70.3c91,-46.399 46.6,-208.102 46.6,-168.301c-17.4,-17.199 -21.7,-58.301 -46.6,-70.301c-95.3,-46.398 -390,-17.199 -423.6,54.402c-40.1,86.098 -45.5,770.098 -11.9,885.398c13,42.4 58.5,98.1 102.9,98.1l1.1,0" id="path172"/>
    <path fill="#100f0d" fill-rule="nonzero" d="m4035.7,-4.862378c-8.7,-41.1 -16.3,-71.6 -21.7,-139.2c16.2,-3.898 42.2,0 56.3,-14.5c11.9,11.902 4.4,26.5 23.9,27.801c-5.5,43.699 -9.8,82.199 -12,112.699c-2.1,1.3 -42.2,10.6 -45.5,14.5l-1,-1.3zm92,379.1c61.8,-92.8 98.6,-316.8 138.7,-448c30.3,-103.398 102.9,-234.597 113.8,-349.898c7.5,-80.902 -12,-167 -57.5,-181.601c-150.5,-51.699 -134.3,153.699 -218.8,180.199c-41.2,14.602 -152.7,14.602 -192.8,1.402c-55.3,-18.601 -61.8,-119.3 -104,-155.101c-54.2,-45.102 -133.3,-14.598 -114.9,-13.301c-16.2,12 -37.9,10.602 -45.5,26.5c-22.7,50.402 -11.9,144.5 0,196.199c19.5,87.5 67.2,185.602 92.1,267.701c26,87.5 31.4,151.1 57.4,238.6c31.5,107.4 84.5,298.3 194,308.9c54.1,5.3 114.8,-35.8 137.5,-71.6" id="path174"/>
    <path fill="#100f0d" fill-rule="nonzero" d="m4364,429.837622c91,17.3 313.1,23.9 403,1.4c28.2,-8 54.2,-41.1 68.2,-70.3c97.5,-210.7 -133.2,-140.5 -161.4,-238.6c-52,-189.5 75.9,-682.599 -80.1,-728.9c-272,-82.199 -82.4,572.5 -160.4,743.5c-15.1,33.2 -99.6,50.4 -126.7,70.3c-21.7,15.9 -53.1,37.1 -56.4,68.9c-9.7,88.8 57.5,143.2 114.9,155.1l-1.1,-1.4" id="path176"/>
    <path fill="#100f0d" fill-rule="nonzero" d="m5165.5,268.137622c-15.1,-6.6 -41.1,0 -57.4,0c0,-2.6 -16.2,-62.2 -22.8,-83.5c12,-2.6 29.3,-26.5 34.7,-27.8c34.7,-7.9 26,17.2 56.4,14.6c4.3,13.2 5.4,47.7 11.9,54.3c-5.4,14.6 -19.5,21.2 -22.8,42.4zm18.9,-668.098c9.5,19.597 22.7,25.8 36.3,40c-8.5,32.097 -4.3,55.8 -8.6,83.8c-23.7,3.5 -72,14.297 -113.1,16.899c-7.3,-19.602 -19.2,-17.899 -34.6,-25.399c4.6,-18.699 -2,-50.3 -2.8,-70.199c42.3,-26.504 53.9,-34.902 122.8,-46.402l0,1.301zm276.9,625.698c18.4,-116.6 -48.8,-171 -33.6,-263.7c7.6,-47.7 76.9,-88.799 91,-140.498c59.6,-212.102 -69.3,-380.403 -192.9,-417.5c-83.4,-25.2 -314.1,-30.5 -376.9,15.898c-17.4,11.902 -52.1,70.203 -56.4,95.402c-17.3,92.797 -8.6,781.998 10.8,836.398c14.1,39.7 72.6,75.5 113.8,83.5c205.8,38.4 416,-26.6 444.2,-209.5" id="path178"/>
    <path fill="#100f0d" fill-rule="nonzero" d="m5901.1,244.337622c-224.3,-18.6 -225.3,-634.9 67.2,-553.998c183,50.297 167.9,575.198 -67.2,555.298l0,-1.3zm180.9,-858.9c-62.8,-21.199 -147.3,-10.598 -204.7,0c-476.7,88.801 -436.6,990.1 -10.9,1055.1c600.2,90.1 644.6,-913.299 215.6,-1055.1" id="path180"/>
    <g id="g182" transform="translate(262.5,1342.5) scale(1.00068998336792) ">
     <path fill="#100f0d" fill-rule="nonzero" d="m6169.225935,-896.040358c94.2,-1.4 167.7,-168.28 210,-242.43c30.3,13.29 46.6,-4 70.4,14.59c13,9.29 3.3,26.48 11.9,41.07c24.8,50.27 116.9,182.78 173.2,186.77c30.3,1.3 65,-25.18 83.4,-42.47c123.4,-127.11 -155.9,-417.21 -186.3,-527.13c-31.4,-111.229 13.1,-305.998 -23.8,-413.221c-16.2,-46.37 -71.4,-92.737 -139.6,-71.552c0,5.297 0,9.294 -1.1,14.591c-134.3,82.143 -44.3,278.106 -81.2,470.182l-10.8,27.87c-39,94.04 -304.2,370.85 -175.4,497.96c15.2,15.89 43.3,43.77 70.4,43.77l-1.1,0" id="path184"/>
    </g>
   </g>
  </g>
 </g>
</svg>